<?xml version="1.0" encoding="UTF-8" standalone="no"?>
<svg
   xmlns:dc="http://purl.org/dc/elements/1.1/"
   xmlns:cc="http://creativecommons.org/ns#"
   xmlns:rdf="http://www.w3.org/1999/02/22-rdf-syntax-ns#"
   xmlns:svg="http://www.w3.org/2000/svg"
   xmlns="http://www.w3.org/2000/svg"
   viewBox="0 0 258.66666 258.66666"
   height="258.66666"
   width="258.66666"
   xml:space="preserve"
   id="svg2"
   version="1.1"><metadata
     id="metadata8"><rdf:RDF><cc:Work
         rdf:about=""><dc:format>image/svg+xml</dc:format><dc:type
           rdf:resource="http://purl.org/dc/dcmitype/StillImage" /></cc:Work></rdf:RDF></metadata><defs
     id="defs6" /><g
     transform="matrix(1.3333333,0,0,-1.3333333,0,258.66667)"
     id="g10"><g
       transform="scale(0.1)"
       id="g12"><path
         id="path14"
         style="fill:#ffffff;fill-opacity:1;fill-rule:evenodd;stroke:none"
         d="M 2.59766,1933.23 H 1930.16 V 5.66797 H 2.59766 V 1933.23" /><path
         id="path16"
         style="fill:#225385;fill-opacity:1;fill-rule:evenodd;stroke:none"
         d="m 1901.81,1425.14 c 0,89.86 -46.7,134.44 -137.28,134.44 H 168.219 c -45.285,0 -78.5432,-12.03 -100.4768,-36.79 -24.7656,-24.77 -36.7969,-56.61 -36.7969,-97.65 V 513.762 c 0,-41.032 12.0313,-72.168 36.7969,-97.637 C 93.2148,391.359 125.766,379.32 168.219,379.32 H 1764.53 c 90.58,0 137.28,45.285 137.28,134.442 z m -137.28,113.22 c 75.01,0 113.22,-38.22 113.22,-113.22 V 513.762 c 0,-75.707 -38.21,-113.211 -113.22,-113.211 H 168.219 c -36.09,0 -63.68,10.609 -84.2073,31.84 -21.2226,20.519 -31.8398,48.82 -31.8398,81.371 v 911.378 c 0,75 37.5039,113.22 116.0471,113.22 H 1764.53" /><path
         id="path18"
         style="fill:#225385;fill-opacity:1;fill-rule:evenodd;stroke:none"
         d="m 180.953,1485.99 c -30.422,0 -49.527,-4.95 -60.14,-15.56 -9.2,-12.03 -13.446,-31.84 -13.446,-60.86 V 1212.16 H 1825.39 v 197.41 c 0,51.66 -25.48,76.42 -76.42,76.42 H 180.953" /><path
         id="path20"
         style="fill:#f19d1c;fill-opacity:1;fill-rule:evenodd;stroke:none"
         d="m 107.367,532.164 c 0,-52.359 24.762,-79.254 73.586,-79.254 H 1748.97 c 50.94,0 76.42,26.895 76.42,79.254 V 729.578 H 107.367 V 532.164" /><path
         id="path22"
         style="fill:#225385;fill-opacity:1;fill-rule:evenodd;stroke:none"
         d="m 676.266,1127.95 c 0,-9.2 -1.414,-16.27 -4.953,-21.22 L 547.484,890.91 539.703,1154.13 H 341.578 l 66.516,-31.84 c 19.101,-12.03 29.011,-27.59 29.011,-47.41 L 455.5,795.383 h 96.938 L 784.527,1154.13 H 665.652 c 7.078,-6.37 10.614,-16.27 10.614,-26.18" /><path
         id="path24"
         style="fill:#225385;fill-opacity:1;fill-rule:evenodd;stroke:none"
         d="m 1477.26,1143.52 7.78,10.61 h -121 c 4.25,-4.24 5.66,-6.37 5.66,-7.78 -1.41,-5.66 -4.24,-9.2 -5.66,-13.44 L 1187.85,811.66 c -4.24,-5.664 -8.49,-10.613 -13.44,-16.277 h 99.77 l -4.95,10.613 c 0,9.203 4.95,26.184 15.56,50.238 l 21.23,39.629 h 102.6 c 4.24,-33.258 7.08,-60.851 8.49,-81.375 l -8.49,-19.105 h 123.83 l -18.4,26.89 z m -73.6,-197.418 h -73.58 l 62.97,120.998 z" /><path
         id="path26"
         style="fill:#225385;fill-opacity:1;fill-rule:evenodd;stroke:none"
         d="m 1097.98,1172.53 c -38.2,0 -70.75,-10.61 -99.765,-31.84 -31.836,-18.4 -47.406,-41.75 -47.406,-70.76 0,-33.25 11.324,-62.27 33.964,-84.203 l 68.637,-47.407 c 24.77,-17.691 36.8,-33.257 36.8,-47.41 0,-13.445 -6.38,-25.472 -18.4,-34.676 -12.03,-9.191 -25.47,-13.441 -42.45,-13.441 -24.77,0 -67.227,17.691 -125.958,50.238 v -65.804 c 45.989,-27.594 90.575,-41.747 133.738,-41.747 41.04,0 75.71,11.321 105.43,36.793 31.84,23.352 47.4,50.946 47.4,81.372 0,25.476 -11.32,48.824 -36.79,73.589 l -65.81,47.406 c -21.93,17.7 -33.96,33.26 -33.96,45.29 0,27.59 16.28,41.75 49.53,41.75 22.64,0 55.9,-12.74 100.48,-39.63 l 13.45,68.64 c -37.51,21.23 -76.43,31.84 -118.89,31.84" /><path
         id="path28"
         style="fill:#225385;fill-opacity:1;fill-rule:evenodd;stroke:none"
         d="m 834.77,795.383 c -1.418,14.859 -4.254,28.305 -5.668,42.457 l 89.867,290.11 21.226,26.18 H 810.711 c 1.414,-6.37 2.828,-14.86 4.242,-21.22 0,-6.37 0,-14.16 -1.414,-21.23 L 723.676,824.398 705.277,795.383 H 834.77" /></g></g></svg>